<svg xmlns="http://www.w3.org/2000/svg" viewBox="-1.06581e-14 0 22 22">
  <path d="M 5 2 v -0.5 a 1.5 1.5 0 1 1 3 0 V 2 h 6 v -0.5 a 1.5 1.5 0 1 1 3 0 V 2 h 3.5 A 1.5 1.5 0 0 1 22 3.5 v 17 a 1.5 1.5 0 0 1 -1.5 1.5 h -19 A 1.5 1.5 0 0 1 0 20.5 v -17 A 1.5 1.5 0 0 1 1.5 2 H 5 z m 0 1 H 1.5 a 0.5 0.5 0 0 0 -0.5 0.5 V 7 h 20 V 3.5 a 0.5 0.5 0 0 0 -1 -0.5 H 17 v 0.5 a 1.5 1.5 0 1 1 -3 0 V 3 H 8 v 0.5 a 1.5 1.5 0 1 1 -3 0 V 3 z M 1 8 v 12.5 a 0.5 0.5 0 0 0 0.5 0.5 h 19 a 0.5 0.5 0 0 0 0.5 -0.5 V 8 H 1 z m 3 2 h 2 a 1 1 0 0 1 1 1 v 2 a 1 1 0 0 1 -1 1 H 4 a 1 1 0 0 1 -1 -1 v -2 a 1 1 0 0 1 1 -1 z m 0 1 v 2 h 2 v -2 H 4 z m 11.5 -7 a 0.5 0.5 0 0 0 0.5 -0.5 v -2 a 0.5 0.5 0 0 0 -1 0 v 2 a 0.5 0.5 0 0 0 0.5 0.5 z m -9 0 a 0.5 0.5 0 0 0 0.5 -0.5 v -2 a 0.5 0.5 0 0 0 -1 0 v 2 a 0.5 0.5 0 0 0 0.5 0.5 z" fill="#0"/>
</svg>