<svg xmlns="http://www.w3.org/2000/svg" viewBox="-5.96046e-8 0 20 20">
  <path d="M19.249 7.55l-2.276-2.277-.752-.752-.752.752a.521.521 0 0 1-.738 0 .525.525 0 0 1-.002-.741l.752-.751-.752-.753L12.453.751 11.699 0l-.751.751L8.4 3.301l-.752.751-.098.098-6.799 6.798-.751.751.751.751 2.278 2.278.752.752.751-.752a.519.519 0 0 1 .739-.002.518.518 0 0 1 .155.373c0 .082-.02.234-.153.368l-.752.753.751.751 2.278 2.277.751.752.751-.751 6.8-6.799.097-.097.752-.752 2.55-2.551.749-.749-.751-.751zm-3.301 3.302l-.423-.426-.851.852.426.422-6.8 6.799-2.277-2.276c.619-.617.62-1.623.001-2.242l-.001-.002h-.002a1.586 1.586 0 0 0-2.241 0l-2.278-2.277L8.3 4.903l.427.424.85-.85-.427-.424 2.549-2.55 2.277 2.278a1.584 1.584 0 0 0 0 2.242v.001l.002.002a1.587 1.587 0 0 0 2.242-.002l2.276 2.277-2.548 2.551z" fill="#0"/>
</svg>