<?xml version="1.0" standalone="no"?>
<!DOCTYPE svg PUBLIC "-//W3C//DTD SVG 20010904//EN"
 "http://www.w3.org/TR/2001/REC-SVG-20010904/DTD/svg10.dtd">
<svg version="1.0" xmlns="http://www.w3.org/2000/svg"
 width="541.000000pt" height="225.000000pt" viewBox="0 0 541.000000 225.000000"
 preserveAspectRatio="xMidYMid meet">
<metadata>
Created by potrace 1.16, written by Peter Selinger 2001-2019
</metadata>
<g transform="translate(0.000000,225.000000) scale(0.100000,-0.100000)"
fill="#000000" stroke="none">
<path d="M0 1485 c0 -421 4 -765 8 -765 4 0 12 4 18 9 10 9 106 41 124 41 6 0
9 -4 6 -8 -3 -5 8 -6 25 -4 26 4 43 22 19 22 -18 0 1 27 27 39 23 11 25 10 14
-3 -7 -8 -11 -21 -8 -28 4 -8 6 -7 6 5 1 25 57 24 64 -3 8 -29 -13 -49 -63
-59 -28 -5 -35 -9 -20 -10 29 -2 -163 -70 -197 -71 -23 0 -23 -2 -23 -126 l0
-126 43 6 c40 5 35 0 -20 -19 -22 -7 -23 -11 -23 -142 l0 -135 28 7 c15 3 53
8 83 10 29 2 77 11 104 19 52 16 132 33 300 61 55 9 135 23 178 31 42 8 91 14
107 14 16 0 32 5 35 10 3 6 27 10 53 10 26 0 88 7 137 15 50 8 108 15 130 15
22 0 51 7 63 16 20 14 22 14 22 0 0 -9 -4 -16 -10 -16 -5 0 -10 -9 -10 -20 0
-12 -6 -20 -12 -19 -20 3 -51 -12 -72 -35 l-18 -21 6 25 c5 17 4 21 -2 11 -8
-11 -10 -11 -15 0 -4 10 -6 10 -6 2 -1 -7 -13 -13 -27 -13 -17 0 -23 -4 -18
-12 5 -7 2 -9 -9 -5 -9 3 -18 0 -21 -9 -3 -8 -12 -14 -21 -14 -8 0 -15 -4 -15
-9 0 -5 9 -7 20 -4 33 9 23 -6 -16 -22 -37 -15 -59 -12 -48 7 5 8 -1 9 -17 5
-13 -4 -28 -7 -33 -7 -4 0 -6 -9 -3 -20 6 -23 -12 -27 -31 -8 -10 10 -15 10
-20 1 -10 -16 -51 -13 -45 3 3 7 -21 2 -58 -13 -50 -20 -67 -23 -81 -14 -14 9
-18 8 -18 -3 0 -10 -14 -17 -37 -21 -21 -4 -47 -9 -58 -12 -20 -6 -36 -8 -115
-17 -25 -2 -57 -7 -72 -11 -21 -5 -29 -3 -34 9 -7 19 -34 22 -34 3 0 -13 -6
-15 -75 -20 -22 -2 -53 -11 -70 -20 -28 -16 151 -17 2618 -17 l2647 0 0 1125
0 1125 -2705 0 -2705 0 0 -765z"/>
</g>
</svg>
