<?xml version="1.0" standalone="no"?>
<!DOCTYPE svg PUBLIC "-//W3C//DTD SVG 20010904//EN"
 "http://www.w3.org/TR/2001/REC-SVG-20010904/DTD/svg10.dtd">
<svg version="1.0" xmlns="http://www.w3.org/2000/svg"
 width="512.000000pt" height="512.000000pt" viewBox="0 0 512.000000 512.000000"
 preserveAspectRatio="xMidYMid meet">
<metadata>
Created by potrace 1.16, written by Peter Selinger 2001-2019
</metadata>
<g transform="translate(0.000000,512.000000) scale(0.100000,-0.100000)"
fill="#000000" stroke="none">
<path d="M2305 5113 c-671 -72 -1279 -393 -1707 -903 -301 -358 -488 -764
-571 -1240 -19 -109 -21 -162 -21 -410 0 -248 2 -301 21 -410 94 -540 320
-987 693 -1374 383 -398 866 -650 1430 -749 109 -19 162 -21 410 -21 313 0
407 10 653 73 882 228 1600 946 1828 1828 63 246 73 340 73 653 0 313 -10 407
-73 653 -228 881 -946 1600 -1828 1828 -227 58 -334 71 -613 74 -140 2 -273 1
-295 -2z m420 -257 c499 -23 1028 -257 1419 -627 811 -768 954 -2015 335
-2939 -757 -1130 -2295 -1373 -3354 -530 -908 724 -1136 2020 -527 3004 397
642 1087 1056 1827 1095 72 4 144 6 160 4 17 -1 80 -4 140 -7z"/>
<path d="M2445 4407 c-109 -37 -201 -114 -242 -204 -113 -247 25 -515 291
-564 125 -23 260 25 351 123 75 81 99 146 100 268 0 86 -3 101 -32 162 -40 86
-106 151 -191 191 -55 26 -81 32 -152 34 -52 2 -101 -2 -125 -10z"/>
<path d="M2002 3388 c-17 -17 -17 -369 0 -386 8 -8 66 -12 195 -12 l183 0 0
-900 0 -900 -190 0 -190 0 0 -195 0 -195 648 2 647 3 0 190 0 190 -197 3 -198
2 -2 1103 -3 1102 -440 3 c-335 2 -444 -1 -453 -10z"/>
</g>
</svg>
