<?xml version="1.0" standalone="no"?>
<!DOCTYPE svg PUBLIC "-//W3C//DTD SVG 20010904//EN"
 "http://www.w3.org/TR/2001/REC-SVG-20010904/DTD/svg10.dtd">
<svg version="1.0" xmlns="http://www.w3.org/2000/svg"
 width="1920.000000pt" height="1920.000000pt" viewBox="0 0 1920.000000 1920.000000"
 preserveAspectRatio="xMidYMid meet">
<metadata>
Created by potrace 1.16, written by Peter Selinger 2001-2019
</metadata>
<g transform="translate(0.000000,1920.000000) scale(0.100000,-0.100000)"
fill="#000000" stroke="none">
<path d="M9100 16959 c-63 -5 -200 -19 -305 -31 -104 -11 -213 -22 -241 -24
-101 -5 -495 -81 -722 -140 -357 -92 -578 -161 -822 -256 -113 -44 -220 -84
-238 -90 -50 -14 -519 -236 -632 -299 -281 -156 -353 -197 -409 -232 -36 -22
-69 -44 -75 -49 -6 -5 -82 -56 -169 -114 -305 -201 -604 -435 -839 -655 -512
-479 -857 -878 -1167 -1348 -53 -80 -104 -157 -114 -171 -49 -71 -74 -111
-107 -170 -157 -280 -201 -360 -255 -470 -77 -155 -225 -474 -225 -485 0 -5
-38 -105 -84 -224 -85 -219 -121 -327 -196 -594 -97 -349 -182 -744 -200 -934
-5 -59 -14 -139 -19 -178 -39 -287 -46 -424 -46 -885 0 -463 4 -552 42 -865 8
-71 17 -157 19 -190 7 -115 80 -492 140 -723 93 -361 161 -578 260 -833 46
-119 84 -219 84 -224 0 -29 258 -560 365 -750 43 -77 95 -169 115 -205 33 -59
59 -100 107 -170 10 -14 62 -92 116 -174 312 -471 643 -853 1160 -1340 238
-223 535 -456 844 -660 87 -58 163 -109 169 -114 6 -5 39 -27 75 -49 56 -35
128 -76 409 -232 99 -55 576 -282 620 -296 14 -4 122 -44 240 -90 254 -98 475
-167 832 -259 230 -59 607 -132 723 -140 33 -2 141 -13 240 -24 291 -34 454
-42 805 -42 351 0 513 8 805 42 99 11 206 22 238 23 111 7 496 82 725 141 357
92 578 161 832 259 118 46 226 86 240 90 44 14 521 241 620 296 281 156 353
197 409 232 36 22 69 44 75 49 6 5 82 56 169 114 411 271 719 526 1106 915
306 306 472 496 687 785 128 173 378 542 433 642 21 37 80 144 132 237 52 94
125 233 161 310 150 316 176 372 183 396 4 13 44 121 90 239 98 254 167 475
259 832 60 231 133 608 140 723 2 33 11 119 19 190 38 313 42 402 42 865 0
461 -7 598 -46 885 -5 39 -14 119 -19 178 -18 190 -103 585 -200 934 -75 267
-111 375 -196 594 -46 119 -84 220 -84 224 0 29 -256 554 -365 750 -43 77 -95
170 -116 207 -56 101 -305 470 -433 642 -215 289 -381 479 -687 785 -387 389
-695 644 -1106 915 -87 58 -163 109 -169 114 -6 5 -39 27 -75 49 -56 35 -128
76 -409 232 -113 63 -582 285 -632 299 -18 6 -125 46 -238 90 -244 95 -465
164 -822 256 -230 59 -607 132 -723 140 -33 2 -141 13 -240 24 -99 12 -246 26
-327 31 -170 13 -809 12 -978 0z m930 -470 c91 -5 201 -14 245 -19 44 -5 118
-12 165 -14 161 -8 551 -82 855 -162 94 -25 211 -56 260 -69 184 -49 592 -199
840 -310 199 -89 521 -255 725 -375 96 -56 177 -105 180 -109 3 -4 66 -47 140
-96 227 -150 527 -378 677 -514 198 -179 634 -610 643 -637 3 -8 30 -40 61
-72 182 -187 509 -640 723 -1000 113 -192 280 -513 371 -717 111 -247 261
-656 310 -840 13 -49 42 -160 65 -245 80 -301 155 -695 166 -864 2 -44 9 -121
14 -171 43 -399 43 -948 0 -1350 -5 -49 -12 -128 -15 -175 -15 -222 -129 -765
-229 -1092 -8 -27 -12 -48 -11 -48 7 0 -101 -311 -170 -490 -175 -454 -427
-940 -700 -1347 -180 -268 -429 -592 -545 -708 -22 -22 -40 -45 -40 -50 0 -6
-52 -62 -115 -125 l-114 -114 -11 28 c-6 16 -15 47 -20 71 -10 43 -64 191 -98
266 -177 392 -181 401 -360 699 -75 126 -339 493 -361 502 -4 2 -37 37 -72 78
-101 118 -283 303 -409 414 -63 55 -126 113 -140 127 -32 34 -270 210 -380
281 -237 155 -482 289 -680 373 -30 13 -89 39 -130 58 -123 56 -375 138 -625
203 -77 19 -151 39 -165 43 l-25 8 33 17 c167 87 422 285 618 480 292 292 511
616 652 966 105 261 178 539 207 785 20 167 20 565 0 725 -40 314 -156 698
-292 965 -90 176 -264 454 -307 490 -7 6 -43 48 -80 95 -38 47 -126 141 -195
210 -118 118 -151 148 -216 194 -14 11 -38 30 -53 43 -178 157 -547 355 -847
456 -342 113 -569 154 -905 164 -361 9 -657 -36 -1025 -158 -323 -107 -690
-304 -875 -469 -19 -17 -51 -42 -71 -55 -54 -35 -306 -287 -385 -385 -37 -47
-73 -89 -80 -95 -43 -36 -217 -314 -307 -490 -136 -267 -252 -651 -292 -965
-20 -160 -20 -558 0 -725 29 -250 103 -527 211 -794 141 -347 357 -666 648
-957 196 -195 451 -393 618 -480 l33 -17 -25 -8 c-14 -4 -88 -24 -165 -43
-259 -67 -504 -147 -633 -207 -45 -22 -84 -39 -87 -39 -3 0 -71 -31 -152 -68
-143 -66 -387 -205 -563 -320 -97 -63 -339 -241 -369 -271 -11 -11 -80 -74
-153 -140 -148 -133 -276 -261 -394 -396 -43 -49 -82 -91 -86 -93 -19 -8 -288
-380 -348 -482 -164 -277 -210 -360 -257 -465 -136 -299 -196 -446 -213 -521
-5 -23 -14 -54 -20 -70 l-11 -28 -114 114 c-63 63 -115 119 -115 125 0 5 -18
28 -40 50 -116 116 -365 440 -545 708 -201 299 -420 696 -570 1032 -111 247
-261 656 -310 840 -13 50 -42 160 -65 245 -80 301 -155 695 -166 864 -2 44 -9
122 -14 171 -43 399 -43 948 0 1350 5 50 12 128 15 175 12 177 85 559 165 860
23 85 52 196 65 245 49 184 199 593 310 840 91 204 258 525 371 717 211 354
541 813 717 994 28 29 55 61 61 72 19 36 551 567 588 588 9 5 43 34 76 66 125
118 426 347 662 503 74 49 137 92 140 96 3 4 84 53 180 109 204 120 526 286
725 375 248 111 656 261 840 310 50 13 167 44 260 69 304 80 694 154 855 162
47 2 121 9 165 14 299 35 721 43 1105 19z m-30 -3473 c150 -26 373 -87 482
-131 34 -14 66 -25 71 -25 5 0 71 -31 146 -68 204 -103 383 -217 476 -302 88
-82 162 -148 171 -151 5 -2 35 -35 68 -72 32 -37 77 -87 100 -110 131 -133
277 -372 409 -667 27 -61 96 -270 122 -369 127 -495 88 -1013 -116 -1525 -128
-321 -298 -576 -559 -836 -293 -294 -602 -485 -998 -619 -99 -33 -278 -78
-398 -98 -156 -26 -592 -26 -748 0 -120 20 -299 65 -398 98 -396 134 -705 325
-998 619 -261 260 -431 515 -559 836 -108 270 -160 494 -183 781 -18 229 7
511 67 744 26 101 95 309 122 369 78 171 150 308 217 413 87 136 124 184 223
287 40 41 73 78 73 81 0 4 44 46 98 94 53 48 115 104 137 124 104 97 358 253
550 339 189 84 444 159 650 191 179 29 193 29 425 26 163 -3 235 -9 350 -29z
m568 -5489 c268 -38 505 -89 708 -153 63 -19 124 -37 136 -39 118 -23 559
-222 768 -347 260 -156 346 -214 511 -346 30 -23 70 -55 89 -70 69 -54 501
-488 539 -542 22 -30 51 -68 66 -85 110 -122 301 -419 426 -660 85 -164 208
-442 233 -526 23 -76 86 -288 97 -323 7 -24 5 -32 -14 -46 -12 -10 -36 -31
-53 -48 -93 -89 -422 -336 -634 -477 -74 -49 -137 -92 -140 -96 -3 -4 -84 -53
-180 -109 -204 -120 -526 -286 -725 -375 -248 -111 -656 -261 -840 -310 -49
-13 -166 -44 -260 -69 -300 -79 -694 -154 -850 -162 -44 -2 -120 -8 -170 -14
-386 -43 -992 -42 -1355 1 -47 6 -110 10 -140 10 -120 1 -574 86 -875 165 -93
25 -210 56 -260 69 -184 49 -592 199 -840 310 -199 89 -521 255 -725 375 -96
56 -177 105 -180 109 -3 4 -66 47 -140 96 -215 142 -537 386 -665 504 -39 36
-43 43 -35 68 9 32 72 240 96 322 25 84 148 362 233 526 125 241 316 538 426
660 15 17 44 55 66 85 38 53 469 488 539 542 19 15 58 46 85 68 159 126 267
200 515 348 210 125 650 324 768 347 12 2 73 20 136 39 273 86 561 140 901
170 22 2 398 2 835 1 667 -2 813 -5 908 -18z"/>
</g>
</svg>
